<svg width="921" height="979" viewBox="0 0 921 979" fill="none" xmlns="http://www.w3.org/2000/svg">
<g filter="url(#filter0_f_300_152)">
<circle cx="536" cy="443" r="136" fill="url(#paint0_linear_300_152)" fill-opacity="0.64"/>
</g>
<g filter="url(#filter1_d_300_152)">
<circle cx="543" cy="444" r="88" fill="url(#paint1_linear_300_152)"/>
<mask id="path-3-outside-1_300_152" maskUnits="userSpaceOnUse" x="470.173" y="403.527" width="145" height="109" fill="black">
<rect fill="white" x="470.173" y="403.527" width="145" height="109"/>
<path d="M579.307 419.314C577.284 419.333 575.265 419.502 573.269 419.822C571.273 420.143 569.307 420.632 567.388 421.253C563.553 422.51 559.9 424.342 556.659 426.74C553.398 429.121 550.518 431.978 547.688 434.862C544.863 437.754 542.044 440.542 538.971 443.208C545.175 446.962 552.183 449.125 559.384 449.907C566.579 450.711 573.94 449.935 580.818 447.705C587.698 445.478 594.096 441.774 599.43 436.903C604.764 432.036 609.16 426.563 611.882 419.88C606.959 415.278 601.098 411.689 594.755 409.427C588.413 407.156 581.594 406.272 574.887 406.733C571.53 406.968 568.208 407.6 564.98 408.545C561.758 409.512 558.638 410.813 555.695 412.441C554.234 413.267 552.807 414.151 551.443 415.14C550.082 416.129 548.754 417.165 547.478 418.272C544.919 420.474 542.511 422.864 540.128 425.287C537.743 427.707 535.374 430.163 532.883 432.511C531.638 433.685 530.365 434.834 529.04 435.925C527.717 437.022 526.353 438.072 524.918 439.028C524.561 439.271 524.205 439.514 523.835 439.735C523.468 439.962 523.106 440.196 522.734 440.412L521.604 441.047C521.232 441.266 520.837 441.442 520.453 441.641L519.873 441.934C519.68 442.028 519.478 442.111 519.282 442.199C518.885 442.371 518.495 442.556 518.095 442.719C517.286 443.028 516.483 443.351 515.654 443.597C514.837 443.882 513.989 444.072 513.156 444.299L511.883 444.559L511.245 444.686L510.602 444.782C508.89 445.039 507.159 445.158 505.427 445.141C501.968 445.108 498.519 444.539 495.228 443.481C493.582 442.951 491.978 442.296 490.432 441.525C488.889 440.746 487.401 439.859 485.984 438.873C480.335 434.895 475.857 429.27 473.316 422.836L473.173 422.469L473.49 422.24C478.237 418.806 483.944 416.825 489.739 416.311C495.543 415.797 501.46 416.77 506.808 419.046C509.481 420.19 512.01 421.657 514.362 423.358C516.709 425.068 518.854 427.041 520.815 429.174C524.716 433.464 527.819 438.431 530.183 443.699C531.373 446.332 532.37 449.051 533.192 451.819C533.615 453.2 533.966 454.601 534.3 456.004C534.609 457.413 534.899 458.83 535.117 460.256C535.55 463.107 535.887 465.966 536.138 468.833C536.282 470.265 536.376 471.701 536.492 473.135C536.583 474.571 536.693 476.005 536.765 477.442C537.088 483.185 537.27 488.934 537.328 494.686C537.395 500.435 537.331 506.187 537.11 511.933C537.185 509.06 537.215 506.184 537.215 503.311C537.204 500.438 537.179 497.562 537.116 494.689C537 488.942 536.762 483.199 536.384 477.464C536.299 476.03 536.174 474.599 536.069 473.165C535.937 471.734 535.832 470.303 535.675 468.875C535.396 466.018 535.031 463.167 534.573 460.341C534.098 457.518 533.435 454.728 532.602 451.99C531.77 449.252 530.768 446.567 529.575 443.967C527.209 438.768 524.111 433.881 520.249 429.685C518.308 427.599 516.193 425.673 513.882 424.013C511.568 422.358 509.089 420.941 506.471 419.839C501.233 417.648 495.471 416.739 489.825 417.272C484.192 417.808 478.836 419.343 474.261 422.672C476.737 428.907 481.103 434.157 486.589 438.006C487.967 438.962 489.411 439.818 490.907 440.569C492.406 441.312 493.964 441.945 495.559 442.456C498.751 443.476 502.092 444.02 505.438 444.045C507.112 444.059 508.785 443.94 510.436 443.688L511.054 443.594L511.67 443.47L512.899 443.216C513.705 442.995 514.522 442.813 515.312 442.534C516.113 442.293 516.888 441.978 517.67 441.68C518.056 441.522 518.435 441.343 518.818 441.174C519.009 441.089 519.202 441.009 519.39 440.915L519.95 440.63C520.32 440.437 520.704 440.263 521.066 440.05L522.159 439.431C522.521 439.218 522.872 438.989 523.231 438.768C523.59 438.553 523.937 438.315 524.283 438.077C525.68 437.144 527.013 436.113 528.308 435.036C529.609 433.964 530.862 432.826 532.091 431.663C534.554 429.339 536.901 426.881 539.297 424.458C541.691 422.032 544.126 419.626 546.733 417.394C548.03 416.272 549.389 415.214 550.783 414.206C552.177 413.198 553.649 412.289 555.151 411.446C558.169 409.786 561.366 408.46 564.666 407.476C567.971 406.515 571.372 405.877 574.807 405.642C581.671 405.183 588.631 406.1 595.109 408.432C601.583 410.755 607.561 414.432 612.575 419.14L612.832 419.38L612.699 419.701C611.987 421.4 611.197 423.066 610.317 424.684C609.417 426.292 608.447 427.859 607.384 429.364C606.308 430.859 605.167 432.306 603.944 433.679C602.71 435.044 601.421 436.359 600.054 437.591C594.59 442.523 588.063 446.246 581.063 448.468C574.064 450.689 566.598 451.429 559.309 450.573C552.02 449.736 544.93 447.258 538.703 443.393L538.403 443.208L538.67 442.981C541.741 440.368 544.549 437.453 547.406 434.583C550.267 431.724 553.188 428.881 556.496 426.513C559.787 424.132 563.476 422.314 567.344 421.104C569.279 420.505 571.259 420.04 573.261 419.745C575.26 419.452 577.286 419.308 579.307 419.314Z"/>
</mask>
<path d="M579.307 419.314C577.284 419.333 575.265 419.502 573.269 419.822C571.273 420.143 569.307 420.632 567.388 421.253C563.553 422.51 559.9 424.342 556.659 426.74C553.398 429.121 550.518 431.978 547.688 434.862C544.863 437.754 542.044 440.542 538.971 443.208C545.175 446.962 552.183 449.125 559.384 449.907C566.579 450.711 573.94 449.935 580.818 447.705C587.698 445.478 594.096 441.774 599.43 436.903C604.764 432.036 609.16 426.563 611.882 419.88C606.959 415.278 601.098 411.689 594.755 409.427C588.413 407.156 581.594 406.272 574.887 406.733C571.53 406.968 568.208 407.6 564.98 408.545C561.758 409.512 558.638 410.813 555.695 412.441C554.234 413.267 552.807 414.151 551.443 415.14C550.082 416.129 548.754 417.165 547.478 418.272C544.919 420.474 542.511 422.864 540.128 425.287C537.743 427.707 535.374 430.163 532.883 432.511C531.638 433.685 530.365 434.834 529.04 435.925C527.717 437.022 526.353 438.072 524.918 439.028C524.561 439.271 524.205 439.514 523.835 439.735C523.468 439.962 523.106 440.196 522.734 440.412L521.604 441.047C521.232 441.266 520.837 441.442 520.453 441.641L519.873 441.934C519.68 442.028 519.478 442.111 519.282 442.199C518.885 442.371 518.495 442.556 518.095 442.719C517.286 443.028 516.483 443.351 515.654 443.597C514.837 443.882 513.989 444.072 513.156 444.299L511.883 444.559L511.245 444.686L510.602 444.782C508.89 445.039 507.159 445.158 505.427 445.141C501.968 445.108 498.519 444.539 495.228 443.481C493.582 442.951 491.978 442.296 490.432 441.525C488.889 440.746 487.401 439.859 485.984 438.873C480.335 434.895 475.857 429.27 473.316 422.836L473.173 422.469L473.49 422.24C478.237 418.806 483.944 416.825 489.739 416.311C495.543 415.797 501.46 416.77 506.808 419.046C509.481 420.19 512.01 421.657 514.362 423.358C516.709 425.068 518.854 427.041 520.815 429.174C524.716 433.464 527.819 438.431 530.183 443.699C531.373 446.332 532.37 449.051 533.192 451.819C533.615 453.2 533.966 454.601 534.3 456.004C534.609 457.413 534.899 458.83 535.117 460.256C535.55 463.107 535.887 465.966 536.138 468.833C536.282 470.265 536.376 471.701 536.492 473.135C536.583 474.571 536.693 476.005 536.765 477.442C537.088 483.185 537.27 488.934 537.328 494.686C537.395 500.435 537.331 506.187 537.11 511.933C537.185 509.06 537.215 506.184 537.215 503.311C537.204 500.438 537.179 497.562 537.116 494.689C537 488.942 536.762 483.199 536.384 477.464C536.299 476.03 536.174 474.599 536.069 473.165C535.937 471.734 535.832 470.303 535.675 468.875C535.396 466.018 535.031 463.167 534.573 460.341C534.098 457.518 533.435 454.728 532.602 451.99C531.77 449.252 530.768 446.567 529.575 443.967C527.209 438.768 524.111 433.881 520.249 429.685C518.308 427.599 516.193 425.673 513.882 424.013C511.568 422.358 509.089 420.941 506.471 419.839C501.233 417.648 495.471 416.739 489.825 417.272C484.192 417.808 478.836 419.343 474.261 422.672C476.737 428.907 481.103 434.157 486.589 438.006C487.967 438.962 489.411 439.818 490.907 440.569C492.406 441.312 493.964 441.945 495.559 442.456C498.751 443.476 502.092 444.02 505.438 444.045C507.112 444.059 508.785 443.94 510.436 443.688L511.054 443.594L511.67 443.47L512.899 443.216C513.705 442.995 514.522 442.813 515.312 442.534C516.113 442.293 516.888 441.978 517.67 441.68C518.056 441.522 518.435 441.343 518.818 441.174C519.009 441.089 519.202 441.009 519.39 440.915L519.95 440.63C520.32 440.437 520.704 440.263 521.066 440.05L522.159 439.431C522.521 439.218 522.872 438.989 523.231 438.768C523.59 438.553 523.937 438.315 524.283 438.077C525.68 437.144 527.013 436.113 528.308 435.036C529.609 433.964 530.862 432.826 532.091 431.663C534.554 429.339 536.901 426.881 539.297 424.458C541.691 422.032 544.126 419.626 546.733 417.394C548.03 416.272 549.389 415.214 550.783 414.206C552.177 413.198 553.649 412.289 555.151 411.446C558.169 409.786 561.366 408.46 564.666 407.476C567.971 406.515 571.372 405.877 574.807 405.642C581.671 405.183 588.631 406.1 595.109 408.432C601.583 410.755 607.561 414.432 612.575 419.14L612.832 419.38L612.699 419.701C611.987 421.4 611.197 423.066 610.317 424.684C609.417 426.292 608.447 427.859 607.384 429.364C606.308 430.859 605.167 432.306 603.944 433.679C602.71 435.044 601.421 436.359 600.054 437.591C594.59 442.523 588.063 446.246 581.063 448.468C574.064 450.689 566.598 451.429 559.309 450.573C552.02 449.736 544.93 447.258 538.703 443.393L538.403 443.208L538.67 442.981C541.741 440.368 544.549 437.453 547.406 434.583C550.267 431.724 553.188 428.881 556.496 426.513C559.787 424.132 563.476 422.314 567.344 421.104C569.279 420.505 571.259 420.04 573.261 419.745C575.26 419.452 577.286 419.308 579.307 419.314Z" fill="white"/>
<path d="M579.307 419.314C577.284 419.333 575.265 419.502 573.269 419.822C571.273 420.143 569.307 420.632 567.388 421.253C563.553 422.51 559.9 424.342 556.659 426.74C553.398 429.121 550.518 431.978 547.688 434.862C544.863 437.754 542.044 440.542 538.971 443.208C545.175 446.962 552.183 449.125 559.384 449.907C566.579 450.711 573.94 449.935 580.818 447.705C587.698 445.478 594.096 441.774 599.43 436.903C604.764 432.036 609.16 426.563 611.882 419.88C606.959 415.278 601.098 411.689 594.755 409.427C588.413 407.156 581.594 406.272 574.887 406.733C571.53 406.968 568.208 407.6 564.98 408.545C561.758 409.512 558.638 410.813 555.695 412.441C554.234 413.267 552.807 414.151 551.443 415.14C550.082 416.129 548.754 417.165 547.478 418.272C544.919 420.474 542.511 422.864 540.128 425.287C537.743 427.707 535.374 430.163 532.883 432.511C531.638 433.685 530.365 434.834 529.04 435.925C527.717 437.022 526.353 438.072 524.918 439.028C524.561 439.271 524.205 439.514 523.835 439.735C523.468 439.962 523.106 440.196 522.734 440.412L521.604 441.047C521.232 441.266 520.837 441.442 520.453 441.641L519.873 441.934C519.68 442.028 519.478 442.111 519.282 442.199C518.885 442.371 518.495 442.556 518.095 442.719C517.286 443.028 516.483 443.351 515.654 443.597C514.837 443.882 513.989 444.072 513.156 444.299L511.883 444.559L511.245 444.686L510.602 444.782C508.89 445.039 507.159 445.158 505.427 445.141C501.968 445.108 498.519 444.539 495.228 443.481C493.582 442.951 491.978 442.296 490.432 441.525C488.889 440.746 487.401 439.859 485.984 438.873C480.335 434.895 475.857 429.27 473.316 422.836L473.173 422.469L473.49 422.24C478.237 418.806 483.944 416.825 489.739 416.311C495.543 415.797 501.46 416.77 506.808 419.046C509.481 420.19 512.01 421.657 514.362 423.358C516.709 425.068 518.854 427.041 520.815 429.174C524.716 433.464 527.819 438.431 530.183 443.699C531.373 446.332 532.37 449.051 533.192 451.819C533.615 453.2 533.966 454.601 534.3 456.004C534.609 457.413 534.899 458.83 535.117 460.256C535.55 463.107 535.887 465.966 536.138 468.833C536.282 470.265 536.376 471.701 536.492 473.135C536.583 474.571 536.693 476.005 536.765 477.442C537.088 483.185 537.27 488.934 537.328 494.686C537.395 500.435 537.331 506.187 537.11 511.933C537.185 509.06 537.215 506.184 537.215 503.311C537.204 500.438 537.179 497.562 537.116 494.689C537 488.942 536.762 483.199 536.384 477.464C536.299 476.03 536.174 474.599 536.069 473.165C535.937 471.734 535.832 470.303 535.675 468.875C535.396 466.018 535.031 463.167 534.573 460.341C534.098 457.518 533.435 454.728 532.602 451.99C531.77 449.252 530.768 446.567 529.575 443.967C527.209 438.768 524.111 433.881 520.249 429.685C518.308 427.599 516.193 425.673 513.882 424.013C511.568 422.358 509.089 420.941 506.471 419.839C501.233 417.648 495.471 416.739 489.825 417.272C484.192 417.808 478.836 419.343 474.261 422.672C476.737 428.907 481.103 434.157 486.589 438.006C487.967 438.962 489.411 439.818 490.907 440.569C492.406 441.312 493.964 441.945 495.559 442.456C498.751 443.476 502.092 444.02 505.438 444.045C507.112 444.059 508.785 443.94 510.436 443.688L511.054 443.594L511.67 443.47L512.899 443.216C513.705 442.995 514.522 442.813 515.312 442.534C516.113 442.293 516.888 441.978 517.67 441.68C518.056 441.522 518.435 441.343 518.818 441.174C519.009 441.089 519.202 441.009 519.39 440.915L519.95 440.63C520.32 440.437 520.704 440.263 521.066 440.05L522.159 439.431C522.521 439.218 522.872 438.989 523.231 438.768C523.59 438.553 523.937 438.315 524.283 438.077C525.68 437.144 527.013 436.113 528.308 435.036C529.609 433.964 530.862 432.826 532.091 431.663C534.554 429.339 536.901 426.881 539.297 424.458C541.691 422.032 544.126 419.626 546.733 417.394C548.03 416.272 549.389 415.214 550.783 414.206C552.177 413.198 553.649 412.289 555.151 411.446C558.169 409.786 561.366 408.46 564.666 407.476C567.971 406.515 571.372 405.877 574.807 405.642C581.671 405.183 588.631 406.1 595.109 408.432C601.583 410.755 607.561 414.432 612.575 419.14L612.832 419.38L612.699 419.701C611.987 421.4 611.197 423.066 610.317 424.684C609.417 426.292 608.447 427.859 607.384 429.364C606.308 430.859 605.167 432.306 603.944 433.679C602.71 435.044 601.421 436.359 600.054 437.591C594.59 442.523 588.063 446.246 581.063 448.468C574.064 450.689 566.598 451.429 559.309 450.573C552.02 449.736 544.93 447.258 538.703 443.393L538.403 443.208L538.67 442.981C541.741 440.368 544.549 437.453 547.406 434.583C550.267 431.724 553.188 428.881 556.496 426.513C559.787 424.132 563.476 422.314 567.344 421.104C569.279 420.505 571.259 420.04 573.261 419.745C575.26 419.452 577.286 419.308 579.307 419.314Z" stroke="white" stroke-width="3.35238" mask="url(#path-3-outside-1_300_152)"/>
</g>
<defs>
<filter id="filter0_f_300_152" x="0" y="-93" width="1072" height="1072" filterUnits="userSpaceOnUse" color-interpolation-filters="sRGB">
<feFlood flood-opacity="0" result="BackgroundImageFix"/>
<feBlend mode="normal" in="SourceGraphic" in2="BackgroundImageFix" result="shape"/>
<feGaussianBlur stdDeviation="200" result="effect1_foregroundBlur_300_152"/>
</filter>
<filter id="filter1_d_300_152" x="387.952" y="297.333" width="310.095" height="310.095" filterUnits="userSpaceOnUse" color-interpolation-filters="sRGB">
<feFlood flood-opacity="0" result="BackgroundImageFix"/>
<feColorMatrix in="SourceAlpha" type="matrix" values="0 0 0 0 0 0 0 0 0 0 0 0 0 0 0 0 0 0 127 0" result="hardAlpha"/>
<feOffset dy="8.38095"/>
<feGaussianBlur stdDeviation="33.5238"/>
<feComposite in2="hardAlpha" operator="out"/>
<feColorMatrix type="matrix" values="0 0 0 0 0.104167 0 0 0 0 0.066116 0 0 0 0 0.030816 0 0 0 0.12 0"/>
<feBlend mode="normal" in2="BackgroundImageFix" result="effect1_dropShadow_300_152"/>
<feBlend mode="normal" in="SourceGraphic" in2="effect1_dropShadow_300_152" result="shape"/>
</filter>
<linearGradient id="paint0_linear_300_152" x1="400" y1="358" x2="681.182" y2="377.88" gradientUnits="userSpaceOnUse">
<stop stop-color="#30C917"/>
<stop offset="1" stop-color="#279A13"/>
</linearGradient>
<linearGradient id="paint1_linear_300_152" x1="455" y1="389" x2="636.941" y2="401.863" gradientUnits="userSpaceOnUse">
<stop stop-color="#30C917"/>
<stop offset="1" stop-color="#279A13"/>
</linearGradient>
</defs>
</svg>
